<svg xmlns="http://www.w3.org/2000/svg" xmlns:xlink="http://www.w3.org/1999/xlink"  zoomAndPan="magnify" viewBox="0 0 375 135.000003" preserveAspectRatio="xMidYMid meet" version="1.0"><defs><g/></defs><g fill="#00bf63" fill-opacity="1"><g transform="translate(14.29062, 57.793383)"><g><path d="M 30.972656 -0.910156 L 19.980469 -36.800781 C 19.84375 -37.230469 19.445312 -37.445312 19.015625 -37.445312 L 13.882812 -37.445312 C 13.453125 -37.445312 13.050781 -37.230469 12.917969 -36.800781 L 1.925781 -0.910156 C 1.765625 -0.375 1.980469 0 2.566406 0 L 5.082031 0 C 5.507812 0 5.855469 -0.160156 5.992188 -0.640625 L 8.292969 -8.292969 L 24.605469 -8.292969 L 26.90625 -0.640625 C 27.039062 -0.160156 27.386719 0 27.816406 0 L 30.328125 0 C 30.917969 0 31.132812 -0.375 30.972656 -0.910156 Z M 9.441406 -12.035156 L 15.808594 -33.164062 L 17.089844 -33.164062 L 23.457031 -12.035156 Z M 9.441406 -12.035156 "/></g></g></g><g fill="#00bf63" fill-opacity="1"><g transform="translate(46.970846, 57.793383)"><g><path d="M 28.484375 -33.59375 C 28.964844 -33.59375 29.285156 -33.914062 29.285156 -34.394531 L 29.285156 -36.640625 C 29.285156 -37.121094 28.964844 -37.445312 28.484375 -37.445312 L 4.414062 -37.445312 C 3.929688 -37.445312 3.609375 -37.121094 3.609375 -36.640625 L 3.609375 -34.394531 C 3.609375 -33.914062 3.929688 -33.59375 4.414062 -33.59375 L 14.363281 -33.59375 L 14.363281 -3.851562 L 4.414062 -3.851562 C 3.929688 -3.851562 3.609375 -3.53125 3.609375 -3.050781 L 3.609375 -0.800781 C 3.609375 -0.320312 3.929688 0 4.414062 0 L 28.484375 0 C 28.964844 0 29.285156 -0.320312 29.285156 -0.800781 L 29.285156 -3.050781 C 29.285156 -3.53125 28.964844 -3.851562 28.484375 -3.851562 L 18.535156 -3.851562 L 18.535156 -33.59375 Z M 28.484375 -33.59375 "/></g></g></g><g fill="#db28c9" fill-opacity="1"><g transform="translate(79.654101, 57.793383)"><g><path d="M 21.769531 -14.683594 C 27.519531 -15.808594 29.285156 -19.550781 29.285156 -25.890625 C 29.285156 -33.539062 26.71875 -37.445312 17.625 -37.445312 L 5.214844 -37.445312 C 4.734375 -37.445312 4.414062 -37.121094 4.414062 -36.640625 L 4.414062 -0.800781 C 4.414062 -0.320312 4.734375 0 5.214844 0 L 7.78125 0 C 8.265625 0 8.585938 -0.320312 8.585938 -0.800781 L 8.585938 -14.335938 L 17.652344 -14.335938 L 24.367188 -0.589844 C 24.550781 -0.1875 24.875 0 25.300781 0 L 27.949219 0 C 28.5625 0 28.804688 -0.375 28.539062 -0.9375 Z M 8.585938 -33.59375 L 17.625 -33.59375 C 23.027344 -33.59375 25.222656 -32.683594 25.222656 -25.890625 C 25.222656 -19.097656 23.027344 -18.1875 17.625 -18.1875 L 8.585938 -18.1875 Z M 8.585938 -33.59375 "/></g></g></g><g fill="#db28c9" fill-opacity="1"><g transform="translate(112.334327, 57.793383)"><g><path d="M 16.449219 -37.980469 C 7.410156 -37.980469 3.34375 -34.339844 3.34375 -20.167969 L 3.34375 -17.011719 C 3.34375 -2.835938 7.410156 0.800781 16.449219 0.800781 C 25.488281 0.800781 29.554688 -2.835938 29.554688 -17.011719 L 29.554688 -20.167969 C 29.554688 -34.339844 25.488281 -37.980469 16.449219 -37.980469 Z M 16.449219 -33.96875 C 22.546875 -33.96875 25.460938 -32.308594 25.460938 -20.167969 L 25.460938 -17.011719 C 25.460938 -4.867188 22.546875 -3.210938 16.449219 -3.210938 C 10.351562 -3.210938 7.433594 -4.867188 7.433594 -17.011719 L 7.433594 -20.167969 C 7.433594 -32.308594 10.351562 -33.96875 16.449219 -33.96875 Z M 16.449219 -33.96875 "/></g></g></g><g fill="#db28c9" fill-opacity="1"><g transform="translate(145.014554, 57.793383)"><g><path d="M 30.972656 -0.910156 L 19.980469 -36.800781 C 19.84375 -37.230469 19.445312 -37.445312 19.015625 -37.445312 L 13.882812 -37.445312 C 13.453125 -37.445312 13.050781 -37.230469 12.917969 -36.800781 L 1.925781 -0.910156 C 1.765625 -0.375 1.980469 0 2.566406 0 L 5.082031 0 C 5.507812 0 5.855469 -0.160156 5.992188 -0.640625 L 8.292969 -8.292969 L 24.605469 -8.292969 L 26.90625 -0.640625 C 27.039062 -0.160156 27.386719 0 27.816406 0 L 30.328125 0 C 30.917969 0 31.132812 -0.375 30.972656 -0.910156 Z M 9.441406 -12.035156 L 15.808594 -33.164062 L 17.089844 -33.164062 L 23.457031 -12.035156 Z M 9.441406 -12.035156 "/></g></g></g><g fill="#db28c9" fill-opacity="1"><g transform="translate(177.694778, 57.793383)"><g><path d="M 13.613281 -37.445312 L 4.679688 -37.445312 C 4.199219 -37.445312 3.878906 -37.121094 3.878906 -36.640625 L 3.878906 -0.800781 C 3.878906 -0.320312 4.199219 0 4.679688 0 L 13.613281 0 C 26.664062 0 29.820312 -7.0625 29.820312 -18.722656 C 29.820312 -30.382812 26.664062 -37.445312 13.613281 -37.445312 Z M 13.613281 -3.851562 L 8.050781 -3.851562 L 8.050781 -33.59375 L 13.613281 -33.59375 C 23.617188 -33.59375 25.59375 -28.457031 25.59375 -18.722656 C 25.59375 -8.988281 23.617188 -3.851562 13.613281 -3.851562 Z M 13.613281 -3.851562 "/></g></g></g><g fill="#db28c9" fill-opacity="1"><g transform="translate(210.375007, 57.793383)"><g><path d="M 4.546875 0 L 6.714844 0 C 7.195312 0 7.515625 -0.320312 7.515625 -0.800781 L 7.515625 -28.5625 L 7.835938 -28.5625 L 14.363281 -0.589844 C 14.46875 -0.160156 14.84375 0 15.273438 0 L 17.625 0 C 18.054688 0 18.429688 -0.160156 18.535156 -0.589844 L 25.0625 -28.5625 L 25.382812 -28.5625 L 25.382812 -0.800781 C 25.382812 -0.320312 25.703125 0 26.183594 0 L 28.351562 0 C 28.832031 0 29.152344 -0.320312 29.152344 -0.800781 L 29.152344 -36.640625 C 29.152344 -37.121094 28.832031 -37.445312 28.351562 -37.445312 L 24.875 -37.445312 C 24.445312 -37.445312 23.992188 -37.285156 23.910156 -36.910156 L 16.582031 -4.332031 L 16.316406 -4.332031 L 8.988281 -36.910156 C 8.90625 -37.285156 8.453125 -37.445312 8.023438 -37.445312 L 4.546875 -37.445312 C 4.066406 -37.445312 3.746094 -37.121094 3.746094 -36.640625 L 3.746094 -0.800781 C 3.746094 -0.320312 4.066406 0 4.546875 0 Z M 4.546875 0 "/></g></g></g><g fill="#db28c9" fill-opacity="1"><g transform="translate(243.055237, 57.793383)"><g><path d="M 30.972656 -0.910156 L 19.980469 -36.800781 C 19.84375 -37.230469 19.445312 -37.445312 19.015625 -37.445312 L 13.882812 -37.445312 C 13.453125 -37.445312 13.050781 -37.230469 12.917969 -36.800781 L 1.925781 -0.910156 C 1.765625 -0.375 1.980469 0 2.566406 0 L 5.082031 0 C 5.507812 0 5.855469 -0.160156 5.992188 -0.640625 L 8.292969 -8.292969 L 24.605469 -8.292969 L 26.90625 -0.640625 C 27.039062 -0.160156 27.386719 0 27.816406 0 L 30.328125 0 C 30.917969 0 31.132812 -0.375 30.972656 -0.910156 Z M 9.441406 -12.035156 L 15.808594 -33.164062 L 17.089844 -33.164062 L 23.457031 -12.035156 Z M 9.441406 -12.035156 "/></g></g></g><g fill="#db28c9" fill-opacity="1"><g transform="translate(275.735455, 57.793383)"><g><path d="M 17.625 -37.445312 L 5.214844 -37.445312 C 4.734375 -37.445312 4.414062 -37.121094 4.414062 -36.640625 L 4.414062 -0.800781 C 4.414062 -0.320312 4.734375 0 5.214844 0 L 7.78125 0 C 8.265625 0 8.585938 -0.320312 8.585938 -0.800781 L 8.585938 -14.335938 L 17.625 -14.335938 C 26.71875 -14.335938 29.285156 -18.242188 29.285156 -25.890625 C 29.285156 -33.539062 26.71875 -37.445312 17.625 -37.445312 Z M 17.625 -18.1875 L 8.585938 -18.1875 L 8.585938 -33.59375 L 17.625 -33.59375 C 23.027344 -33.59375 25.222656 -32.683594 25.222656 -25.890625 C 25.222656 -19.097656 23.027344 -18.1875 17.625 -18.1875 Z M 17.625 -18.1875 "/></g></g></g><g fill="#db28c9" fill-opacity="1"><g transform="translate(14.29062, 118.09669)"><g><path d="M 16.449219 0.695312 C 18.320312 0.695312 19.765625 -0.75 19.765625 -2.621094 C 19.765625 -4.492188 18.320312 -5.992188 16.449219 -5.992188 C 14.578125 -5.992188 13.132812 -4.492188 13.132812 -2.621094 C 13.132812 -0.75 14.578125 0.695312 16.449219 0.695312 Z M 16.449219 0.695312 "/></g></g></g><g fill="#db28c9" fill-opacity="1"><g transform="translate(46.970846, 118.09669)"><g><path d="M 16.449219 -37.980469 C 7.410156 -37.980469 3.34375 -34.339844 3.34375 -20.167969 L 3.34375 -17.011719 C 3.34375 -2.835938 7.410156 0.800781 16.449219 0.800781 C 25.488281 0.800781 29.554688 -2.835938 29.554688 -17.011719 L 29.554688 -20.167969 C 29.554688 -34.339844 25.488281 -37.980469 16.449219 -37.980469 Z M 16.449219 -33.96875 C 22.546875 -33.96875 25.460938 -32.308594 25.460938 -20.167969 L 25.460938 -17.011719 C 25.460938 -4.867188 22.546875 -3.210938 16.449219 -3.210938 C 10.351562 -3.210938 7.433594 -4.867188 7.433594 -17.011719 L 7.433594 -20.167969 C 7.433594 -32.308594 10.351562 -33.96875 16.449219 -33.96875 Z M 16.449219 -33.96875 "/></g></g></g><g fill="#db28c9" fill-opacity="1"><g transform="translate(79.651073, 118.09669)"><g><path d="M 21.769531 -14.683594 C 27.519531 -15.808594 29.285156 -19.550781 29.285156 -25.890625 C 29.285156 -33.539062 26.71875 -37.445312 17.625 -37.445312 L 5.214844 -37.445312 C 4.734375 -37.445312 4.414062 -37.121094 4.414062 -36.640625 L 4.414062 -0.800781 C 4.414062 -0.320312 4.734375 0 5.214844 0 L 7.78125 0 C 8.265625 0 8.585938 -0.320312 8.585938 -0.800781 L 8.585938 -14.335938 L 17.652344 -14.335938 L 24.367188 -0.589844 C 24.550781 -0.1875 24.875 0 25.300781 0 L 27.949219 0 C 28.5625 0 28.804688 -0.375 28.539062 -0.9375 Z M 8.585938 -33.59375 L 17.625 -33.59375 C 23.027344 -33.59375 25.222656 -32.683594 25.222656 -25.890625 C 25.222656 -19.097656 23.027344 -18.1875 17.625 -18.1875 L 8.585938 -18.1875 Z M 8.585938 -33.59375 "/></g></g></g><g fill="#db28c9" fill-opacity="1"><g transform="translate(112.331297, 118.09669)"><g><path d="M 28.964844 -18.292969 L 15.058594 -18.292969 C 14.578125 -18.292969 14.253906 -17.972656 14.253906 -17.492188 L 14.253906 -15.351562 C 14.253906 -14.871094 14.578125 -14.550781 15.058594 -14.550781 L 25.863281 -14.550781 L 25.863281 -14.496094 C 25.863281 -5.777344 23.214844 -3.210938 16.636719 -3.210938 C 10.589844 -3.210938 7.433594 -4.894531 7.433594 -17.011719 L 7.433594 -20.167969 C 7.433594 -32.28125 10.589844 -33.96875 16.582031 -33.96875 C 21.664062 -33.96875 24.257812 -33.058594 24.953125 -28.617188 C 25.035156 -28.136719 25.433594 -27.921875 25.863281 -27.921875 L 28.324219 -27.921875 C 28.859375 -27.921875 29.097656 -28.242188 29.019531 -28.832031 C 27.949219 -35.679688 24.203125 -37.980469 16.554688 -37.980469 C 7.382812 -37.980469 3.34375 -34.316406 3.34375 -20.167969 L 3.34375 -17.011719 C 3.34375 -2.863281 7.382812 0.800781 16.636719 0.800781 C 25.808594 0.800781 29.769531 -3.746094 29.769531 -14.496094 L 29.769531 -17.492188 C 29.769531 -17.972656 29.445312 -18.292969 28.964844 -18.292969 Z M 28.964844 -18.292969 "/></g></g></g></svg>