<svg xmlns="http://www.w3.org/2000/svg" xmlns:xlink="http://www.w3.org/1999/xlink" width="260" zoomAndPan="magnify" viewBox="0 0 194.87999 60" height="80" preserveAspectRatio="xMidYMid meet" version="1.0"><defs><g/></defs><g fill="#f541a6" fill-opacity="1"><g transform="translate(9.124545, 25.281956)"><g><path d="M 14.964844 -0.4375 L 9.652344 -17.78125 C 9.589844 -17.988281 9.394531 -18.09375 9.1875 -18.09375 L 6.707031 -18.09375 C 6.5 -18.09375 6.304688 -17.988281 6.242188 -17.78125 L 0.929688 -0.4375 C 0.851562 -0.179688 0.957031 0 1.242188 0 L 2.457031 0 C 2.664062 0 2.832031 -0.078125 2.894531 -0.308594 L 4.007812 -4.007812 L 11.890625 -4.007812 L 13 -0.308594 C 13.066406 -0.078125 13.234375 0 13.441406 0 L 14.65625 0 C 14.9375 0 15.042969 -0.179688 14.964844 -0.4375 Z M 4.5625 -5.816406 L 7.636719 -16.023438 L 8.257812 -16.023438 L 11.332031 -5.816406 Z M 4.5625 -5.816406 "/></g></g></g><g fill="#f541a6" fill-opacity="1"><g transform="translate(24.916161, 25.281956)"><g><path d="M 13.761719 -16.230469 C 13.996094 -16.230469 14.152344 -16.386719 14.152344 -16.621094 L 14.152344 -17.703125 C 14.152344 -17.9375 13.996094 -18.09375 13.761719 -18.09375 L 2.132812 -18.09375 C 1.898438 -18.09375 1.746094 -17.9375 1.746094 -17.703125 L 1.746094 -16.621094 C 1.746094 -16.386719 1.898438 -16.230469 2.132812 -16.230469 L 6.941406 -16.230469 L 6.941406 -1.859375 L 2.132812 -1.859375 C 1.898438 -1.859375 1.746094 -1.707031 1.746094 -1.472656 L 1.746094 -0.386719 C 1.746094 -0.15625 1.898438 0 2.132812 0 L 13.761719 0 C 13.996094 0 14.152344 -0.15625 14.152344 -0.386719 L 14.152344 -1.472656 C 14.152344 -1.707031 13.996094 -1.859375 13.761719 -1.859375 L 8.957031 -1.859375 L 8.957031 -16.230469 Z M 13.761719 -16.230469 "/></g></g></g><g fill="#20c997" fill-opacity="1"><g transform="translate(40.709539, 25.281956)"><g><path d="M 10.519531 -7.09375 C 13.296875 -7.636719 14.152344 -9.445312 14.152344 -12.511719 C 14.152344 -16.207031 12.910156 -18.09375 8.515625 -18.09375 L 2.519531 -18.09375 C 2.289062 -18.09375 2.132812 -17.9375 2.132812 -17.703125 L 2.132812 -0.386719 C 2.132812 -0.15625 2.289062 0 2.519531 0 L 3.761719 0 C 3.992188 0 4.148438 -0.15625 4.148438 -0.386719 L 4.148438 -6.925781 L 8.53125 -6.925781 L 11.773438 -0.285156 C 11.863281 -0.0898438 12.019531 0 12.226562 0 L 13.503906 0 C 13.800781 0 13.917969 -0.179688 13.789062 -0.453125 Z M 4.148438 -16.230469 L 8.515625 -16.230469 C 11.128906 -16.230469 12.1875 -15.792969 12.1875 -12.511719 C 12.1875 -9.226562 11.128906 -8.789062 8.515625 -8.789062 L 4.148438 -8.789062 Z M 4.148438 -16.230469 "/></g></g></g><g fill="#20c997" fill-opacity="1"><g transform="translate(56.501155, 25.281956)"><g><path d="M 7.949219 -18.351562 C 3.578125 -18.351562 1.617188 -16.59375 1.617188 -9.746094 L 1.617188 -8.21875 C 1.617188 -1.371094 3.578125 0.386719 7.949219 0.386719 C 12.316406 0.386719 14.28125 -1.371094 14.28125 -8.21875 L 14.28125 -9.746094 C 14.28125 -16.59375 12.316406 -18.351562 7.949219 -18.351562 Z M 7.949219 -16.414062 C 10.894531 -16.414062 12.304688 -15.613281 12.304688 -9.746094 L 12.304688 -8.21875 C 12.304688 -2.351562 10.894531 -1.550781 7.949219 -1.550781 C 5 -1.550781 3.59375 -2.351562 3.59375 -8.21875 L 3.59375 -9.746094 C 3.59375 -15.613281 5 -16.414062 7.949219 -16.414062 Z M 7.949219 -16.414062 "/></g></g></g><g fill="#20c997" fill-opacity="1"><g transform="translate(72.292771, 25.281956)"><g><path d="M 14.964844 -0.4375 L 9.652344 -17.78125 C 9.589844 -17.988281 9.394531 -18.09375 9.1875 -18.09375 L 6.707031 -18.09375 C 6.5 -18.09375 6.304688 -17.988281 6.242188 -17.78125 L 0.929688 -0.4375 C 0.851562 -0.179688 0.957031 0 1.242188 0 L 2.457031 0 C 2.664062 0 2.832031 -0.078125 2.894531 -0.308594 L 4.007812 -4.007812 L 11.890625 -4.007812 L 13 -0.308594 C 13.066406 -0.078125 13.234375 0 13.441406 0 L 14.65625 0 C 14.9375 0 15.042969 -0.179688 14.964844 -0.4375 Z M 4.5625 -5.816406 L 7.636719 -16.023438 L 8.257812 -16.023438 L 11.332031 -5.816406 Z M 4.5625 -5.816406 "/></g></g></g><g fill="#20c997" fill-opacity="1"><g transform="translate(88.084386, 25.281956)"><g><path d="M 6.578125 -18.09375 L 2.261719 -18.09375 C 2.027344 -18.09375 1.875 -17.9375 1.875 -17.703125 L 1.875 -0.386719 C 1.875 -0.15625 2.027344 0 2.261719 0 L 6.578125 0 C 12.882812 0 14.410156 -3.410156 14.410156 -9.046875 C 14.410156 -14.679688 12.882812 -18.09375 6.578125 -18.09375 Z M 6.578125 -1.859375 L 3.890625 -1.859375 L 3.890625 -16.230469 L 6.578125 -16.230469 C 11.410156 -16.230469 12.367188 -13.75 12.367188 -9.046875 C 12.367188 -4.34375 11.410156 -1.859375 6.578125 -1.859375 Z M 6.578125 -1.859375 "/></g></g></g><g fill="#20c997" fill-opacity="1"><g transform="translate(103.876003, 25.281956)"><g><path d="M 2.195312 0 L 3.242188 0 C 3.476562 0 3.632812 -0.15625 3.632812 -0.386719 L 3.632812 -13.800781 L 3.785156 -13.800781 L 6.941406 -0.285156 C 6.992188 -0.078125 7.171875 0 7.378906 0 L 8.515625 0 C 8.722656 0 8.902344 -0.078125 8.957031 -0.285156 L 12.109375 -13.800781 L 12.265625 -13.800781 L 12.265625 -0.386719 C 12.265625 -0.15625 12.417969 0 12.652344 0 L 13.699219 0 C 13.929688 0 14.085938 -0.15625 14.085938 -0.386719 L 14.085938 -17.703125 C 14.085938 -17.9375 13.929688 -18.09375 13.699219 -18.09375 L 12.019531 -18.09375 C 11.8125 -18.09375 11.59375 -18.015625 11.554688 -17.835938 L 8.011719 -2.09375 L 7.882812 -2.09375 L 4.34375 -17.835938 C 4.304688 -18.015625 4.082031 -18.09375 3.878906 -18.09375 L 2.195312 -18.09375 C 1.964844 -18.09375 1.808594 -17.9375 1.808594 -17.703125 L 1.808594 -0.386719 C 1.808594 -0.15625 1.964844 0 2.195312 0 Z M 2.195312 0 "/></g></g></g><g fill="#20c997" fill-opacity="1"><g transform="translate(119.667621, 25.281956)"><g><path d="M 14.964844 -0.4375 L 9.652344 -17.78125 C 9.589844 -17.988281 9.394531 -18.09375 9.1875 -18.09375 L 6.707031 -18.09375 C 6.5 -18.09375 6.304688 -17.988281 6.242188 -17.78125 L 0.929688 -0.4375 C 0.851562 -0.179688 0.957031 0 1.242188 0 L 2.457031 0 C 2.664062 0 2.832031 -0.078125 2.894531 -0.308594 L 4.007812 -4.007812 L 11.890625 -4.007812 L 13 -0.308594 C 13.066406 -0.078125 13.234375 0 13.441406 0 L 14.65625 0 C 14.9375 0 15.042969 -0.179688 14.964844 -0.4375 Z M 4.5625 -5.816406 L 7.636719 -16.023438 L 8.257812 -16.023438 L 11.332031 -5.816406 Z M 4.5625 -5.816406 "/></g></g></g><g fill="#20c997" fill-opacity="1"><g transform="translate(135.459238, 25.281956)"><g><path d="M 8.515625 -18.09375 L 2.519531 -18.09375 C 2.289062 -18.09375 2.132812 -17.9375 2.132812 -17.703125 L 2.132812 -0.386719 C 2.132812 -0.15625 2.289062 0 2.519531 0 L 3.761719 0 C 3.992188 0 4.148438 -0.15625 4.148438 -0.386719 L 4.148438 -6.925781 L 8.515625 -6.925781 C 12.910156 -6.925781 14.152344 -8.8125 14.152344 -12.511719 C 14.152344 -16.207031 12.910156 -18.09375 8.515625 -18.09375 Z M 8.515625 -8.789062 L 4.148438 -8.789062 L 4.148438 -16.230469 L 8.515625 -16.230469 C 11.128906 -16.230469 12.1875 -15.792969 12.1875 -12.511719 C 12.1875 -9.226562 11.128906 -8.789062 8.515625 -8.789062 Z M 8.515625 -8.789062 "/></g></g></g><g fill="#20c997" fill-opacity="1"><g transform="translate(9.124545, 54.509493)"><g><path d="M 7.949219 0.335938 C 8.851562 0.335938 9.550781 -0.363281 9.550781 -1.265625 C 9.550781 -2.171875 8.851562 -2.894531 7.949219 -2.894531 C 7.042969 -2.894531 6.34375 -2.171875 6.34375 -1.265625 C 6.34375 -0.363281 7.042969 0.335938 7.949219 0.335938 Z M 7.949219 0.335938 "/></g></g></g><g fill="#20c997" fill-opacity="1"><g transform="translate(24.916161, 54.509493)"><g><path d="M 7.949219 -18.351562 C 3.578125 -18.351562 1.617188 -16.59375 1.617188 -9.746094 L 1.617188 -8.21875 C 1.617188 -1.371094 3.578125 0.386719 7.949219 0.386719 C 12.316406 0.386719 14.28125 -1.371094 14.28125 -8.21875 L 14.28125 -9.746094 C 14.28125 -16.59375 12.316406 -18.351562 7.949219 -18.351562 Z M 7.949219 -16.414062 C 10.894531 -16.414062 12.304688 -15.613281 12.304688 -9.746094 L 12.304688 -8.21875 C 12.304688 -2.351562 10.894531 -1.550781 7.949219 -1.550781 C 5 -1.550781 3.59375 -2.351562 3.59375 -8.21875 L 3.59375 -9.746094 C 3.59375 -15.613281 5 -16.414062 7.949219 -16.414062 Z M 7.949219 -16.414062 "/></g></g></g><g fill="#20c997" fill-opacity="1"><g transform="translate(40.707777, 54.509493)"><g><path d="M 10.519531 -7.09375 C 13.296875 -7.636719 14.152344 -9.445312 14.152344 -12.511719 C 14.152344 -16.207031 12.910156 -18.09375 8.515625 -18.09375 L 2.519531 -18.09375 C 2.289062 -18.09375 2.132812 -17.9375 2.132812 -17.703125 L 2.132812 -0.386719 C 2.132812 -0.15625 2.289062 0 2.519531 0 L 3.761719 0 C 3.992188 0 4.148438 -0.15625 4.148438 -0.386719 L 4.148438 -6.925781 L 8.53125 -6.925781 L 11.773438 -0.285156 C 11.863281 -0.0898438 12.019531 0 12.226562 0 L 13.503906 0 C 13.800781 0 13.917969 -0.179688 13.789062 -0.453125 Z M 4.148438 -16.230469 L 8.515625 -16.230469 C 11.128906 -16.230469 12.1875 -15.792969 12.1875 -12.511719 C 12.1875 -9.226562 11.128906 -8.789062 8.515625 -8.789062 L 4.148438 -8.789062 Z M 4.148438 -16.230469 "/></g></g></g><g fill="#20c997" fill-opacity="1"><g transform="translate(56.499391, 54.509493)"><g><path d="M 13.996094 -8.839844 L 7.277344 -8.839844 C 7.042969 -8.839844 6.886719 -8.683594 6.886719 -8.453125 L 6.886719 -7.417969 C 6.886719 -7.183594 7.042969 -7.03125 7.277344 -7.03125 L 12.496094 -7.03125 L 12.496094 -7.003906 C 12.496094 -2.792969 11.21875 -1.550781 8.039062 -1.550781 C 5.117188 -1.550781 3.59375 -2.363281 3.59375 -8.21875 L 3.59375 -9.746094 C 3.59375 -15.597656 5.117188 -16.414062 8.011719 -16.414062 C 10.46875 -16.414062 11.722656 -15.972656 12.058594 -13.828125 C 12.097656 -13.59375 12.289062 -13.492188 12.496094 -13.492188 L 13.6875 -13.492188 C 13.945312 -13.492188 14.0625 -13.648438 14.023438 -13.929688 C 13.503906 -17.238281 11.695312 -18.351562 8 -18.351562 C 3.566406 -18.351562 1.617188 -16.582031 1.617188 -9.746094 L 1.617188 -8.21875 C 1.617188 -1.382812 3.566406 0.386719 8.039062 0.386719 C 12.472656 0.386719 14.382812 -1.808594 14.382812 -7.003906 L 14.382812 -8.453125 C 14.382812 -8.683594 14.230469 -8.839844 13.996094 -8.839844 Z M 13.996094 -8.839844 "/></g></g></g></svg>